<svg width="101" height="100" viewBox="0 0 101 100" fill="none" xmlns="http://www.w3.org/2000/svg">
<path d="M13.4316 33.0223H87.5731" stroke="#3E3A39" stroke-width="3" stroke-miterlimit="10"/>
<path d="M85.4242 20.833H15.5819C14.1775 20.833 13.0391 21.9862 13.0391 23.4088V76.5906C13.0391 78.0131 14.1775 79.1663 15.5819 79.1663H85.4242C86.8285 79.1663 87.967 78.0131 87.967 76.5906V23.4088C87.967 21.9862 86.8285 20.833 85.4242 20.833Z" fill="white" stroke="#0A296C" stroke-width="3" stroke-miterlimit="10"/>
<path fill-rule="evenodd" clip-rule="evenodd" d="M13 30.6648V23.5017C13.0066 22.028 14.1928 20.833 15.6477 20.833H85.3654C86.8203 20.833 88 22.028 88 23.5017V30.6648H13Z" fill="#0A296C"/>
<path d="M31.3424 42.5356L41.4547 52.7789L30.6543 63.7193" stroke="#3D70DE" stroke-width="4" stroke-linecap="round" stroke-linejoin="round"/>
<path d="M50.2109 53.1292H69.9768" stroke="#3D70DE" stroke-width="4" stroke-linecap="round" stroke-linejoin="round"/>
<path d="M19.6376 26.9196C20.6909 26.9196 21.5447 26.0547 21.5447 24.9877C21.5447 23.9208 20.6909 23.0559 19.6376 23.0559C18.5843 23.0559 17.7305 23.9208 17.7305 24.9877C17.7305 26.0547 18.5843 26.9196 19.6376 26.9196Z" fill="white"/>
<path d="M26.6981 26.9196C27.7514 26.9196 28.6052 26.0547 28.6052 24.9877C28.6052 23.9208 27.7514 23.0559 26.6981 23.0559C25.6449 23.0559 24.791 23.9208 24.791 24.9877C24.791 26.0547 25.6449 26.9196 26.6981 26.9196Z" fill="white"/>
<path d="M33.7548 26.9196C34.808 26.9196 35.6619 26.0547 35.6619 24.9877C35.6619 23.9208 34.808 23.0559 33.7548 23.0559C32.7015 23.0559 31.8477 23.9208 31.8477 24.9877C31.8477 26.0547 32.7015 26.9196 33.7548 26.9196Z" fill="white"/>
</svg>
