<svg width="101" height="100" viewBox="0 0 101 100" fill="none" xmlns="http://www.w3.org/2000/svg">
<path d="M9.74155 13.3301H59.9055C60.9208 13.3301 61.7252 14.1443 61.7252 15.1256V84.8729C61.7252 85.8542 60.9208 86.6684 59.9055 86.6684H9.74155C8.72621 86.6684 7.92188 85.8542 7.92188 84.8729V15.1256C7.92188 14.1443 8.72621 13.3301 9.74155 13.3301Z" fill="white" stroke="#0A296C" stroke-width="3"/>
<path d="M93.1021 86.3373H82.7742C81.9628 86.3373 81.2988 85.6782 81.2988 84.8726V33.6094H94.5775V84.8726C94.5775 85.6782 93.9136 86.3373 93.1021 86.3373Z" fill="#0A296C"/>
<path d="M87.5767 16.0339L81.2988 33.6099H94.5775L88.2996 16.0339C88.1816 15.697 87.7021 15.697 87.5767 16.0339Z" fill="#E2DDDA"/>
<path d="M87.5754 16.0339L84.6172 24.3166H91.2565L88.2983 16.0339C88.1803 15.697 87.7008 15.697 87.5754 16.0339Z" fill="#0A296C"/>
<path d="M54.0046 27.0186H15.644C15.2365 27.0186 14.9062 27.3464 14.9062 27.7509V39.4682C14.9062 39.8727 15.2365 40.2005 15.644 40.2005H54.0046C54.412 40.2005 54.7423 39.8727 54.7423 39.4682V27.7509C54.7423 27.3464 54.412 27.0186 54.0046 27.0186Z" fill="#E2DDDA"/>
<path d="M28.1849 40.2005H15.644C15.2382 40.2005 14.9062 39.871 14.9062 39.4682V27.7509C14.9062 27.3481 15.2382 27.0186 15.644 27.0186H28.1849V40.2005Z" fill="#BBB2AE"/>
<path d="M54.0046 46.791H15.644C15.2365 46.791 14.9062 47.1189 14.9062 47.5233V59.2407C14.9062 59.6451 15.2365 59.973 15.644 59.973H54.0046C54.412 59.973 54.7423 59.6451 54.7423 59.2407V47.5233C54.7423 47.1189 54.412 46.791 54.0046 46.791Z" fill="#E2DDDA"/>
<path d="M28.1849 59.973H15.644C15.2382 59.973 14.9062 59.6434 14.9062 59.2407V47.5233C14.9062 47.1206 15.2382 46.791 15.644 46.791H28.1849V59.973Z" fill="#BBB2AE"/>
<path d="M47.3626 69.8379H22.2807C21.8733 69.8379 21.543 70.1658 21.543 70.5702V75.6966C21.543 76.101 21.8733 76.4289 22.2807 76.4289H47.3626C47.7701 76.4289 48.1003 76.101 48.1003 75.6966V70.5702C48.1003 70.1658 47.7701 69.8379 47.3626 69.8379Z" fill="#169EFF"/>
<path d="M18.6602 33.2288L20.8733 35.8945L24.6872 31.4492" stroke="white" stroke-width="2" stroke-linecap="round" stroke-linejoin="round"/>
<path d="M18.6602 53.0965L20.8733 55.7548L24.6872 51.3096" stroke="white" stroke-width="2" stroke-linecap="round" stroke-linejoin="round"/>
</svg>
