<svg width="101" height="100" viewBox="0 0 101 100" fill="none" xmlns="http://www.w3.org/2000/svg">
<path d="M50.5776 18.0459H68.8841C71.3025 18.0459 73.9669 19.2439 75.8299 21.1037L93.7427 38.5934L81.1728 54.8504L75.7948 49.4105V84.2578H25.2058V49.4035L19.8277 54.8434L7.25781 38.5934L25.1706 21.1037C27.0266 19.2439 29.691 18.0459 32.1164 18.0459H50.5846H50.5776Z" fill="#F0EBE8" stroke="#0A296C" stroke-width="3" stroke-linecap="round" stroke-linejoin="round"/>
<path d="M65.0036 47.999C62.5248 47.999 60.5 45.9285 60.5 43.3938V40.999H69.5V43.3938C69.5 45.9285 67.4752 47.999 64.9964 47.999H65.0036Z" fill="#FC8C26" stroke="#FC8C26" stroke-width="2" stroke-linecap="round" stroke-linejoin="round"/>
<path d="M50.4238 45.4332C51.8099 45.4332 52.9336 44.3075 52.9336 42.9188C52.9336 41.5301 51.8099 40.4043 50.4238 40.4043C49.0377 40.4043 47.9141 41.5301 47.9141 42.9188C47.9141 44.3075 49.0377 45.4332 50.4238 45.4332Z" fill="#BBB2AE"/>
<path d="M50.4238 56.4622C51.8099 56.4622 52.9336 55.3364 52.9336 53.9477C52.9336 52.559 51.8099 51.4332 50.4238 51.4332C49.0377 51.4332 47.9141 52.559 47.9141 53.9477C47.9141 55.3364 49.0377 56.4622 50.4238 56.4622Z" fill="#BBB2AE"/>
<path d="M50.4238 67.4911C51.8099 67.4911 52.9336 66.3653 52.9336 64.9766C52.9336 63.5879 51.8099 62.4622 50.4238 62.4622C49.0377 62.4622 47.9141 63.5879 47.9141 64.9766C47.9141 66.3653 49.0377 67.4911 50.4238 67.4911Z" fill="#BBB2AE"/>
<path d="M60.1528 15.7402H40.602L30.7598 19.3761L36.2644 33.8708L47.9274 26.5991L47.9204 26.5921H52.8415L52.8344 26.5991L64.4904 33.8708L69.995 19.3761L60.1528 15.7402Z" fill="#1B2B57" stroke="#0A296C" stroke-width="3" stroke-linecap="round" stroke-linejoin="round"/>
<path d="M48.5682 24.2868L44.7578 18.0459H55.999L52.2449 24.2868H48.5682Z" fill="white" stroke="white" stroke-width="2" stroke-linecap="round" stroke-linejoin="round"/>
</svg>
