<svg width="179" height="178" viewBox="0 0 179 178" fill="none" xmlns="http://www.w3.org/2000/svg">
<circle cx="89.9546" cy="89" r="89" fill="white"/>
<g clip-path="url(#clip0_1433_935)">
<path d="M143.197 45.1182H37.3635C35.4431 45.1182 33.8862 46.6767 33.8862 48.5992V136.585C33.8862 138.508 35.4431 140.066 37.3635 140.066H143.197C145.117 140.066 146.674 138.508 146.674 136.585V48.5992C146.674 46.6767 145.117 45.1182 143.197 45.1182Z" fill="white"/>
<path d="M143.197 47.0519C144.032 47.0519 144.743 47.7636 144.743 48.5991V136.585C144.743 137.421 144.032 138.132 143.197 138.132H37.3637C36.5292 138.132 35.8183 137.421 35.8183 136.585V48.5991C35.8183 47.7636 36.5292 47.0519 37.3637 47.0519H143.197ZM143.197 43.1841H37.3637C34.3887 43.1841 31.9546 45.6208 31.9546 48.5991V136.585C31.9546 139.563 34.3887 142 37.3637 142H143.197C146.172 142 148.606 139.563 148.606 136.585V48.5991C148.606 45.6208 146.172 43.1841 143.197 43.1841Z" fill="#0A296C"/>
<path d="M99.9321 63H45.1995C44.5508 63 44.0249 63.5264 44.0249 64.1758V107.318C44.0249 107.967 44.5508 108.494 45.1995 108.494H99.9321C100.581 108.494 101.107 107.967 101.107 107.318V64.1758C101.107 63.5264 100.581 63 99.9321 63Z" fill="#169EFF"/>
<path d="M108.486 115.366L108.471 126.312C108.471 126.9 108.996 127.38 109.645 127.38L135.516 127.426C136.165 127.426 136.691 126.954 136.691 126.366L136.706 115.42C136.706 114.832 136.181 114.353 135.532 114.353L109.661 114.306C109.012 114.306 108.486 114.778 108.486 115.366Z" fill="#BAE2FF"/>
<path fill-rule="evenodd" clip-rule="evenodd" d="M32.2407 56.5282V46.8044C32.2562 44.8008 33.8712 43.1841 35.8726 43.1841H145.887C147.888 43.1841 149.511 44.8086 149.511 46.8121V56.5282H32.2407ZM42.1626 49.8291C42.4717 51.1132 41.3435 52.2503 40.0608 51.9332C39.458 51.7862 38.9635 51.2911 38.8167 50.6877C38.5076 49.4036 39.6358 48.2742 40.9185 48.5836C41.5212 48.7306 42.0158 49.2257 42.1626 49.8291ZM46.884 51.9332C48.1667 52.2426 49.3027 51.1132 48.9936 49.8291C48.8467 49.2257 48.3522 48.7306 47.7495 48.5836C46.4667 48.2742 45.3385 49.4036 45.6476 50.6877C45.7945 51.2911 46.289 51.7862 46.8917 51.9332H46.884ZM55.8941 49.8291C56.2032 51.1132 55.075 52.2503 53.7922 51.9332C53.1895 51.7862 52.695 51.2911 52.5481 50.6877C52.239 49.4036 53.3672 48.2742 54.65 48.5836C55.2527 48.7306 55.7472 49.2257 55.8941 49.8291Z" fill="#0A296C"/>
<path d="M99.6385 118.997H46.0263C45.0217 118.997 44.2026 118.177 44.2026 117.171C44.2026 116.166 45.0217 115.346 46.0263 115.346H99.6385C100.643 115.346 101.462 116.166 101.462 117.171C101.462 118.177 100.643 118.997 99.6385 118.997Z" fill="#BAE2FF"/>
<path d="M85.0493 127.797H46.0263C45.0217 127.797 44.2026 126.977 44.2026 125.972C44.2026 124.966 45.0217 124.146 46.0263 124.146H85.0416C86.0461 124.146 86.8652 124.966 86.8652 125.972C86.8652 126.977 86.0461 127.797 85.0416 127.797H85.0493Z" fill="#BAE2FF"/>
<path d="M135.3 96.7924H105.086C104.081 96.7924 103.262 95.9724 103.262 94.9667C103.262 93.9611 104.081 93.1411 105.086 93.1411H135.3C136.304 93.1411 137.123 93.9611 137.123 94.9667C137.123 95.9724 136.304 96.7924 135.3 96.7924Z" fill="#D9D9D0"/>
<path d="M121.136 97.7751C142.056 97.7751 159.015 80.7975 159.015 59.8546C159.015 38.9117 142.056 21.9341 121.136 21.9341C100.216 21.9341 83.2563 38.9117 83.2563 59.8546C83.2563 80.7975 100.216 97.7751 121.136 97.7751Z" fill="#0A296C" stroke="white" stroke-width="5" stroke-miterlimit="10"/>
<path d="M100.218 43.1064H108.733L111.299 68.9747H134.682" stroke="white" stroke-width="3" stroke-linecap="round" stroke-linejoin="round"/>
<path d="M109.475 48.0342H134.241C135.763 48.0342 136.923 49.4034 136.668 50.9041L134.682 62.8171H110.688" stroke="white" stroke-width="3" stroke-linecap="round" stroke-linejoin="round"/>
<path d="M110.07 55.4292H135.91" stroke="white" stroke-width="3" stroke-linecap="round" stroke-linejoin="round"/>
<path d="M118.678 48.0342V62.8171" stroke="white" stroke-width="3" stroke-linecap="round" stroke-linejoin="round"/>
<path d="M127.294 48.0342V62.8171" stroke="white" stroke-width="3" stroke-linecap="round" stroke-linejoin="round"/>
<path d="M115.788 79.6344C117.589 79.6344 119.049 78.1729 119.049 76.3699C119.049 74.567 117.589 73.1055 115.788 73.1055C113.987 73.1055 112.527 74.567 112.527 76.3699C112.527 78.1729 113.987 79.6344 115.788 79.6344Z" stroke="white" stroke-width="3" stroke-linecap="round" stroke-linejoin="round"/>
<path d="M128.964 79.6344C130.765 79.6344 132.224 78.1729 132.224 76.3699C132.224 74.567 130.765 73.1055 128.964 73.1055C127.163 73.1055 125.703 74.567 125.703 76.3699C125.703 78.1729 127.163 79.6344 128.964 79.6344Z" stroke="white" stroke-width="3" stroke-linecap="round" stroke-linejoin="round"/>
</g>
<defs>
<clipPath id="clip0_1433_935">
<rect width="129" height="122" fill="white" transform="translate(31.9546 20)"/>
</clipPath>
</defs>
</svg>
