<svg width="178" height="178" viewBox="0 0 178 178" fill="none" xmlns="http://www.w3.org/2000/svg">
<circle cx="89" cy="89" r="89" fill="white"/>
<path d="M135.901 53.0319H132.654C131.471 53.0319 130.348 52.3503 129.831 51.1035C129.365 49.9648 129.623 48.6515 130.497 47.7787L132.779 45.5012C133.395 44.8861 133.395 43.8887 132.779 43.2736L128.316 38.8183C127.7 38.2033 126.701 38.2033 126.085 38.8183L123.795 41.1041C122.955 41.9437 121.672 42.2595 120.44 41.7525C119.291 41.2787 118.542 40.1649 118.542 38.9264V35.7096C118.542 34.8369 117.834 34.1387 116.969 34.1387H110.658C109.784 34.1387 109.084 34.8452 109.084 35.7096V38.9513C109.084 40.1316 108.41 41.2455 107.153 41.7691C106.012 42.2429 104.705 41.9769 103.831 41.1125L101.542 38.8267C100.925 38.2116 99.9264 38.2116 99.3103 38.8267L94.8479 43.2819C94.2318 43.897 94.2318 44.8944 94.8479 45.5095L97.1291 47.787C97.9699 48.6265 98.2863 49.9149 97.7785 51.1451C97.3122 52.2838 96.1966 53.0319 94.9561 53.0319H91.7175C90.8434 53.0319 90.144 53.7384 90.144 54.6029V60.9034C90.144 61.7761 90.8517 62.4744 91.7175 62.4744H94.9645C96.1467 62.4744 97.2706 63.1559 97.7868 64.4027C98.253 65.5415 97.9949 66.8548 97.1207 67.7192L94.8396 69.9967C94.2235 70.6118 94.2235 71.6093 94.8396 72.2243L99.302 76.6796C99.9181 77.2947 100.917 77.2947 101.533 76.6796L103.831 74.3855C104.655 73.5626 105.912 73.2301 107.195 73.7538C108.335 74.2192 109.076 75.3247 109.076 76.5466V79.7883C109.076 80.6611 109.784 81.3593 110.65 81.3593H116.96C117.834 81.3593 118.534 80.6527 118.534 79.7883V76.5466C118.534 75.3663 119.216 74.2442 120.465 73.7288C121.606 73.2634 122.921 73.521 123.787 74.3938L126.068 76.6713C126.684 77.2864 127.683 77.2864 128.299 76.6713L132.762 72.216C133.378 71.601 133.378 70.6035 132.762 69.9884L130.464 67.6943C129.64 66.8714 129.307 65.6163 129.831 64.3362C130.298 63.1975 131.405 62.4577 132.629 62.4577H135.876C136.75 62.4577 137.449 61.7512 137.449 60.8868V54.5862C137.449 53.7135 136.741 53.0153 135.876 53.0153L135.901 53.0319ZM113.822 65.6246C109.476 65.6246 105.937 62.092 105.937 57.7531C105.937 53.4142 109.476 49.8816 113.822 49.8816C118.167 49.8816 121.706 53.4142 121.706 57.7531C121.706 62.092 118.167 65.6246 113.822 65.6246Z" fill="#0A296C"/>
<path fill-rule="evenodd" clip-rule="evenodd" d="M114.723 149.923L84.5264 138.668V102.727L114.723 113.982V149.923Z" fill="#5AA660" stroke="#0A296C" stroke-width="4" stroke-linecap="round" stroke-linejoin="round"/>
<path fill-rule="evenodd" clip-rule="evenodd" d="M114.723 149.923L144.919 138.668V102.727L114.723 113.982V149.923Z" fill="#90D696" stroke="#0A296C" stroke-width="4" stroke-linecap="round" stroke-linejoin="round"/>
<path fill-rule="evenodd" clip-rule="evenodd" d="M120.384 142.55L126.562 140.256C126.836 140.156 127.019 139.89 127.019 139.608V137.97C127.019 137.488 126.537 137.147 126.079 137.322L119.901 139.616C119.627 139.716 119.443 139.982 119.443 140.264V141.902C119.443 142.384 119.926 142.725 120.384 142.55Z" fill="white"/>
<path fill-rule="evenodd" clip-rule="evenodd" d="M120.384 136.69L126.562 134.396C126.836 134.296 127.019 134.03 127.019 133.747V132.11C127.019 131.628 126.537 131.287 126.079 131.461L119.901 133.756C119.627 133.855 119.443 134.121 119.443 134.404V136.041C119.443 136.523 119.926 136.864 120.384 136.69Z" fill="white"/>
<path fill-rule="evenodd" clip-rule="evenodd" d="M114.723 113.981L84.5264 102.727L114.723 91.9629L144.919 102.727L114.723 113.981Z" fill="#90D696" stroke="#0A296C" stroke-width="4" stroke-linecap="round" stroke-linejoin="round"/>
<path fill-rule="evenodd" clip-rule="evenodd" d="M128.093 108.579L126.087 108.795L97.0396 98.1554L103.575 95.9277L134.154 106.733V115.552C134.154 116.159 133.788 116.708 133.222 116.932L129.251 118.511C128.701 118.728 128.102 118.329 128.102 117.73V108.562L128.093 108.579Z" fill="#0A296C"/>
<path d="M71.3304 37.0781H38.7947C36.744 37.0781 35.0815 38.7379 35.0815 40.7853V97.4566C35.0815 99.5041 36.744 101.164 38.7947 101.164H71.3304C73.3811 101.164 75.0436 99.5041 75.0436 97.4566V40.7853C75.0436 38.7379 73.3811 37.0781 71.3304 37.0781Z" fill="white" stroke="#0A296C" stroke-width="4" stroke-linejoin="round"/>
<path d="M47.2451 69.6279H62.9136" stroke="#E3E3DC" stroke-width="4" stroke-miterlimit="10" stroke-linecap="round"/>
<path d="M47.2451 79.2036H62.9136" stroke="#E3E3DC" stroke-width="4" stroke-miterlimit="10" stroke-linecap="round"/>
<path d="M47.2451 88.7871H62.9136" stroke="#5AA660" stroke-width="4" stroke-miterlimit="10" stroke-linecap="round"/>
<path d="M63.929 46.3877H46.1875C45.7277 46.3877 45.355 46.7598 45.355 47.2189V60.2521C45.355 60.7112 45.7277 61.0833 46.1875 61.0833H63.929C64.3888 61.0833 64.7615 60.7112 64.7615 60.2521V47.2189C64.7615 46.7598 64.3888 46.3877 63.929 46.3877Z" fill="#5AA660"/>
<path d="M44.2894 118.502C46.8964 118.502 49.0099 116.392 49.0099 113.789C49.0099 111.186 46.8964 109.076 44.2894 109.076C41.6823 109.076 39.5688 111.186 39.5688 113.789C39.5688 116.392 41.6823 118.502 44.2894 118.502Z" fill="#0A296C"/>
<path d="M69.4822 142.824C72.0893 142.824 74.2027 140.714 74.2027 138.111C74.2027 135.508 72.0893 133.398 69.4822 133.398C66.8752 133.398 64.7617 135.508 64.7617 138.111C64.7617 140.714 66.8752 142.824 69.4822 142.824Z" fill="#0A296C"/>
<path d="M68.758 138.11H52.615C48.036 138.11 44.2896 134.369 44.2896 129.798V115.418" stroke="#0A296C" stroke-width="4" stroke-linecap="round" stroke-linejoin="round"/>
</svg>
