<svg width="101" height="100" viewBox="0 0 101 100" fill="none" xmlns="http://www.w3.org/2000/svg">
<path d="M50.25 87.5C70.9607 87.5 87.75 70.7107 87.75 50C87.75 29.2893 70.9607 12.5 50.25 12.5C29.5393 12.5 12.75 29.2893 12.75 50C12.75 70.7107 29.5393 87.5 50.25 87.5Z" fill="#102563"/>
<path d="M50.25 81.5C67.647 81.5 81.75 67.397 81.75 50C81.75 32.603 67.647 18.5 50.25 18.5C32.853 18.5 18.75 32.603 18.75 50C18.75 67.397 32.853 81.5 50.25 81.5Z" stroke="#F0EBE8" stroke-width="3" stroke-miterlimit="0"/>
<path d="M59.4389 38.1021L50.5533 46.9947L41.0586 37.5" stroke="#FC8C26" stroke-width="4" stroke-linecap="round" stroke-linejoin="round"/>
<path d="M50.5527 46.9932V63.6297" stroke="#FC8C26" stroke-width="4" stroke-linecap="round" stroke-linejoin="round"/>
<path d="M41.0586 49.4199H59.4389" stroke="#FC8C26" stroke-width="4" stroke-linecap="round" stroke-linejoin="round"/>
<path d="M41.0586 57.7188H59.4389" stroke="#FC8C26" stroke-width="4" stroke-linecap="round" stroke-linejoin="round"/>
</svg>
