<svg width="179" height="178" viewBox="0 0 179 178" fill="none" xmlns="http://www.w3.org/2000/svg">
<circle cx="89.9829" cy="89" r="89" fill="white"/>
<g clip-path="url(#clip0_1433_918)">
<path fill-rule="evenodd" clip-rule="evenodd" d="M41.0996 141.08C39.0141 141.08 37.312 139.383 37.312 137.286V77.8071H143.593V137.294C143.593 139.383 141.891 141.088 139.806 141.088H41.0996V141.08Z" fill="white"/>
<path d="M141.676 79.727V137.294C141.676 138.323 140.841 139.168 139.806 139.168H41.0993C40.0719 139.168 39.2286 138.331 39.2286 137.294V79.727H141.676ZM145.51 75.8872H35.395V137.294C35.395 140.45 37.9482 143.008 41.0993 143.008H139.806C142.957 143.008 145.51 140.45 145.51 137.294V75.8872Z" fill="#0A296C"/>
<path d="M95.9374 101.383H52.81C51.3999 101.383 50.2568 102.528 50.2568 103.94V126.833C50.2568 128.246 51.3999 129.391 52.81 129.391H95.9374C97.3475 129.391 98.4905 128.246 98.4905 126.833V103.94C98.4905 102.528 97.3475 101.383 95.9374 101.383Z" fill="#FEC5BD"/>
<path d="M120.936 98.2812H121.097C127.308 98.2812 132.345 103.334 132.345 109.547V130.567C132.345 131.98 131.203 133.124 129.792 133.124H112.234C110.824 133.124 109.681 131.98 109.681 130.567V109.547C109.681 103.327 114.726 98.2812 120.929 98.2812H120.936Z" fill="#F76D5A"/>
<path fill-rule="evenodd" clip-rule="evenodd" d="M155.025 77.2465L145.418 59.8981V42.5881C145.418 40.9063 144.038 39.5393 142.328 39.5393H121.565C113.868 31.2222 102.796 26 90.483 26C78.1696 26 67.0983 31.2222 59.3929 39.5393H38.6304C36.9283 39.5393 35.5405 40.9063 35.5405 42.5881V59.8904L25.9337 77.2465C24.914 79.2893 24.6686 81.6547 25.4046 83.8127C27.1527 88.9581 32.075 92.6597 37.8713 92.6597C43.2843 92.6597 47.9306 89.4265 49.9547 84.811C50.3534 83.8971 51.7028 83.8971 52.1015 84.811C54.1179 89.4265 58.7718 92.6597 64.1772 92.6597C69.5825 92.6597 74.2364 89.4265 76.2528 84.811C76.6515 83.8971 78.0009 83.8971 78.3996 84.811C80.4161 89.4265 85.07 92.6597 90.4753 92.6597C95.8806 92.6597 100.535 89.4265 102.551 84.811C102.95 83.8971 104.299 83.8971 104.698 84.811C106.714 89.4265 111.368 92.6597 116.781 92.6597C122.194 92.6597 126.84 89.4265 128.857 84.811C129.255 83.8971 130.605 83.8971 131.004 84.811C133.02 89.4265 137.674 92.6597 143.079 92.6597C148.876 92.6597 153.798 88.9581 155.546 83.8127C156.282 81.6547 156.037 79.2893 155.017 77.2465H155.025Z" fill="#0A296C"/>
<path fill-rule="evenodd" clip-rule="evenodd" d="M132.828 48.9469H118.199C111.552 41.2211 101.646 36.3062 90.5748 36.3062C79.5035 36.3062 69.6053 41.2211 62.9579 48.9469H48.1374C47.4474 48.9469 46.8877 49.4999 46.8877 50.1833V60.2053H134.078V50.1833C134.078 49.4999 133.518 48.9469 132.828 48.9469Z" fill="white"/>
<path d="M121.013 116.014C124.409 116.014 127.162 113.256 127.162 109.854C127.162 106.453 124.409 103.695 121.013 103.695C117.617 103.695 114.864 106.453 114.864 109.854C114.864 113.256 117.617 116.014 121.013 116.014Z" fill="white"/>
<path fill-rule="evenodd" clip-rule="evenodd" d="M25.4124 83.8129C27.1605 88.9583 32.0828 92.6599 37.8791 92.6599C43.2921 92.6599 47.9384 89.4268 49.9625 84.8113C50.3612 83.8974 51.7106 83.8974 52.1093 84.8113C54.1257 89.4268 58.7796 92.6599 64.185 92.6599C69.5903 92.6599 74.2442 89.4268 76.2606 84.8113C76.6593 83.8974 78.0087 83.8974 78.4074 84.8113C80.4239 89.4268 85.0778 92.6599 90.4831 92.6599C95.8884 92.6599 100.542 89.4268 102.559 84.8113C102.957 83.8974 104.307 83.8974 104.706 84.8113C106.722 89.4268 111.376 92.6599 116.789 92.6599C122.202 92.6599 126.848 89.4268 128.865 84.8113C129.263 83.8974 130.613 83.8974 131.011 84.8113C133.028 89.4268 137.682 92.6599 143.087 92.6599C148.883 92.6599 153.806 88.9583 155.554 83.8129C155.991 82.5227 156.075 81.1557 155.86 79.8271H25.1058C24.8834 81.1557 24.9678 82.5227 25.4124 83.8206V83.8129Z" fill="#0A296C"/>
<path d="M73.4771 57.0005H63.6632C63.2398 57.0005 62.8965 57.3443 62.8965 57.7685V64.2449C62.8965 64.6691 63.2398 65.0129 63.6632 65.0129H73.4771C73.9005 65.0129 74.2438 64.6691 74.2438 64.2449V57.7685C74.2438 57.3443 73.9005 57.0005 73.4771 57.0005Z" fill="#F76D5A"/>
<path d="M117.195 57.0005H107.381C106.958 57.0005 106.614 57.3443 106.614 57.7685V64.2449C106.614 64.6691 106.958 65.0129 107.381 65.0129H117.195C117.618 65.0129 117.962 64.6691 117.962 64.2449V57.7685C117.962 57.3443 117.618 57.0005 117.195 57.0005Z" fill="#F76D5A"/>
</g>
<defs>
<clipPath id="clip0_1433_918">
<rect width="131" height="117" fill="white" transform="translate(24.9829 26)"/>
</clipPath>
</defs>
</svg>
